# xmcd
#
# Track frame offsets:
# 183
# 22843
# 36643
# 49615
# 64278
# 80903
# 92265
# 109498
# 128928
#
# Disc length: 1899 seconds
#
# Revision: 0
# Processed by: cddbd v1.4PL0 Copyright (c) Steve Scherf et al.
# Submitted via: Axialis_AX_CDPlayer 2.6
#
DISCID=79076909
DTITLE=T-Bone Walker - Funky Town
DYEAR=1900
DGENRE=
TTITLE0=Goin' to funky town
TTITLE1=Party girl
TTITLE2=Why my baby (keep on bothering me)
TTITLE3=Jealous woman
TTITLE4=Going to build me a playhouse
TTITLE5=long skirt baby blues
TTITLE6=struggling blues
TTITLE7=I'm in an awful mood
TTITLE8=I wish my baby (would come home at night)
EXTD=
EXTT0=
EXTT1=
EXTT2=
EXTT3=
EXTT4=
EXTT5=
EXTT6=
EXTT7=
EXTT8=
PLAYORDER=
